<?xml version="1.0" standalone="no"?>
<!DOCTYPE svg PUBLIC "-//W3C//DTD SVG 20010904//EN"
 "http://www.w3.org/TR/2001/REC-SVG-20010904/DTD/svg10.dtd">
<svg version="1.0" xmlns="http://www.w3.org/2000/svg"
 width="512.000000pt" height="512.000000pt" viewBox="0 0 512.000000 512.000000"
 preserveAspectRatio="xMidYMid meet">

<g transform="translate(0.000000,512.000000) scale(0.100000,-0.100000)"
fill="#ffc046" stroke="none">
<path d="M2470 4188 c-351 -281 -776 -702 -1020 -1009 -45 -57 -84 -106 -86
-108 -1 -2 -69 129 -149 290 -81 162 -154 302 -163 312 -26 30 -63 18 -202
-66 -98 -60 -137 -89 -144 -108 -8 -23 20 -90 212 -503 l221 -477 -20 -102
c-11 -56 -22 -111 -24 -123 -3 -13 -43 -46 -107 -89 -174 -114 -174 -115 -97
-241 72 -117 86 -127 149 -100 13 5 15 -12 15 -131 0 -76 2 -187 4 -246 l5
-108 -108 -44 c-127 -50 -160 -72 -164 -108 -9 -71 43 -90 126 -48 125 63 384
138 543 156 54 7 61 5 125 -33 38 -22 116 -60 174 -84 105 -45 158 -63 385
-133 138 -43 245 -94 331 -159 34 -25 71 -46 83 -46 11 0 49 21 83 46 79 58
190 114 293 147 44 14 148 47 230 73 96 31 204 75 298 122 l149 74 81 -12
c172 -25 380 -87 511 -152 51 -26 62 -28 87 -17 29 11 44 41 37 75 -5 27 -44
50 -163 99 -104 42 -110 46 -108 72 0 16 2 126 3 246 2 119 5 217 7 217 2 0
13 -5 25 -11 40 -22 66 -2 128 94 33 51 60 103 60 118 0 32 -18 49 -152 138
-80 52 -108 77 -108 92 0 12 -9 65 -20 119 l-20 99 220 474 c121 261 220 483
220 494 0 28 -28 50 -166 131 -117 70 -153 82 -183 63 -8 -5 -83 -145 -166
-311 l-151 -301 -34 48 c-182 254 -712 785 -1069 1071 -41 32 -75 52 -91 52
-16 0 -50 -20 -90 -52z m167 -155 c369 -309 770 -715 971 -982 166 -221 268
-535 313 -966 13 -127 19 -649 7 -661 -7 -6 -167 22 -176 31 -3 2 12 23 32 47
79 92 117 216 98 319 -33 179 -215 444 -501 730 -226 225 -402 359 -585 444
-196 91 -305 88 -509 -17 -164 -84 -321 -204 -516 -393 -286 -278 -494 -572
-532 -752 -22 -105 17 -238 97 -331 20 -24 35 -45 32 -47 -4 -4 -148 -35 -164
-35 -20 0 -28 268 -15 493 29 518 131 881 318 1132 138 185 409 477 649 700
154 143 391 345 404 345 5 0 40 -26 77 -57z m-1382 -1167 c-18 -39 -38 -88
-45 -109 -6 -22 -16 -35 -21 -30 -8 8 -339 716 -339 726 0 3 30 24 68 46 l67
41 151 -302 151 -302 -32 -70z m2996 603 c21 -16 21 -18 -145 -375 -92 -197
-170 -362 -175 -367 -4 -4 -22 30 -40 75 -17 46 -38 94 -45 108 -13 23 -4 44
137 326 l151 303 48 -27 c26 -15 58 -34 69 -43z m-1564 -564 c104 -39 337
-185 316 -198 -4 -3 -53 -13 -108 -23 -140 -26 -528 -26 -664 -1 -51 10 -100
21 -107 25 -21 12 185 145 288 187 106 44 177 46 275 10z m-634 -314 c145 -42
271 -56 507 -56 236 0 362 14 506 55 79 23 63 31 191 -94 l82 -79 -117 -117
c-65 -65 -147 -136 -182 -160 -89 -57 -119 -54 -286 31 -118 60 -131 64 -193
64 -61 0 -75 -5 -194 -64 -169 -85 -199 -88 -287 -31 -36 23 -118 95 -183 160
l-117 118 100 96 c55 53 102 96 103 96 1 0 33 -9 70 -19z m-384 -446 c34 -145
86 -301 123 -368 38 -67 249 -284 370 -379 99 -79 227 -154 297 -175 184 -53
380 47 687 352 201 199 214 223 294 538 l37 149 36 -44 c121 -149 230 -338
242 -421 20 -131 -90 -274 -296 -388 -115 -63 -253 -118 -454 -179 -182 -56
-301 -106 -389 -165 l-56 -37 -56 37 c-88 59 -206 108 -399 168 -321 99 -505
189 -626 307 -144 141 -153 248 -38 444 55 92 192 277 200 268 3 -4 16 -52 28
-107z m341 -110 c135 -87 194 -86 380 7 165 82 175 82 340 0 138 -70 206 -85
276 -62 61 20 162 90 253 176 48 45 81 70 78 59 -3 -11 -15 -56 -26 -100 -24
-96 -67 -228 -89 -270 -20 -40 -228 -252 -325 -331 -157 -128 -291 -192 -370
-177 -59 10 -157 64 -255 138 -100 75 -329 298 -364 353 -23 37 -70 173 -98
285 -12 45 -24 91 -27 102 -3 11 30 -14 78 -59 46 -44 113 -98 149 -121z
m-940 43 c-1 -24 -8 -38 -26 -51 -25 -18 -26 -18 -39 0 -8 10 -14 20 -14 23 0
4 68 57 77 59 1 1 2 -14 2 -31z m3025 0 c39 -26 40 -27 22 -52 -13 -18 -15
-18 -40 -1 -19 12 -27 26 -27 46 0 35 1 35 45 7z"/>
<path d="M2060 2489 c-42 -12 -80 -51 -80 -84 0 -55 112 -135 190 -135 79 0
170 50 183 100 18 68 -185 150 -293 119z"/>
<path d="M2933 2490 c-89 -18 -176 -80 -166 -119 13 -49 103 -101 177 -101 82
0 196 77 196 132 0 39 -34 74 -84 87 -50 12 -63 12 -123 1z"/>
</g>
</svg>
